<svg width="130" height="30" viewBox="0 0 130 30" fill="none" xmlns="http://www.w3.org/2000/svg">
<path fill-rule="evenodd" clip-rule="evenodd" d="M14.6707 29.9994C13.0691 29.9166 10.8327 27.306 11.2281 24.9677L11.2288 24.9637C11.3656 24.0774 11.7402 23.1597 12.3689 22.208C14.8938 24.5336 18.3494 25.5416 21.7188 24.9175C24.4271 24.416 26.8199 22.9082 28.4606 20.7363C26.1754 26.3432 20.7283 30.0534 14.6707 29.9994Z" fill="white"/>
<path fill-rule="evenodd" clip-rule="evenodd" d="M21.9885 4.60871C22.9237 4.88161 23.8667 5.22653 24.7203 5.61712C26.0973 6.24719 27.1918 6.97384 27.6758 7.67216C28.0332 8.20323 28.1509 8.9527 28.0057 9.65825C27.8609 10.3615 27.4641 10.9808 26.8404 11.2859C21.7124 13.7949 17.8437 16.1552 15.1757 18.3971C12.5141 20.6336 11.0116 22.7822 10.6877 24.8758C10.3564 26.8399 11.2344 28.732 12.7766 29.765C10.6118 29.2842 8.72286 27.8651 7.65135 25.8277C6.28452 23.2287 6.48258 20.0695 8.16286 17.667C10.5948 14.2355 13.94 11.1852 20.5606 8.676C21.7919 8.3151 22.4659 7.24489 22.4886 6.17586C22.5005 5.61886 22.3357 5.06371 21.9885 4.60871Z" fill="white"/>
<path fill-rule="evenodd" clip-rule="evenodd" d="M6.21795 22.7011C6.29148 23.8657 6.6065 25.0216 7.168 26.0893C7.85158 27.3891 8.84566 28.454 10.0278 29.2116C5.82824 27.7772 2.73829 24.574 1.18772 20.8903C-0.356445 17.2217 -0.374393 13.1469 1.01418 9.54177C3.63669 7.07772 6.96582 5.39801 10.4562 4.52074C6.74351 7.75608 4.57937 12.7436 4.94884 17.7147C5.06653 19.2982 5.51098 21.0332 6.21795 22.7011Z" fill="white"/>
<path fill-rule="evenodd" clip-rule="evenodd" d="M13.7789 0.0345233C18.8171 -0.312226 23.6312 1.97272 26.6054 6.00297C26.1092 5.68402 25.5435 5.38417 24.9456 5.11057C23.5415 4.4681 21.9079 3.94758 20.4433 3.65626C14.2158 2.41744 6.76181 4.00959 1.53351 8.34694C3.84941 3.59034 8.49993 0.397851 13.7789 0.0345233Z" fill="white"/>
<path fill-rule="evenodd" clip-rule="evenodd" d="M41.2952 11.3672V24.4647H36.7916V11.3672H41.2952ZM36.7916 6.42114H41.2952V10.0367H36.7916V6.42114ZM75.0575 24.4647H70.5V17.1455H64.1702V24.4647H59.6128V6.48756H64.1702V13.5502H70.5V6.48756H75.0575V24.4647ZM81.2605 24.4647H76.3233L83.0329 6.48756H88.0966L94.8062 24.4647H89.869L88.7297 21.2546H82.3999L81.2605 24.4647V24.4647ZM83.5392 17.9159H87.5903L85.5649 11.8807L83.5392 17.9159ZM96.0724 6.48756H106.706C108.479 6.48756 109.766 6.89433 110.568 7.70754C111.369 8.52075 111.77 9.82627 111.77 11.6238V13.9354C111.77 15.3562 111.538 16.4606 111.074 17.2483C110.61 18.0357 109.871 18.5581 108.859 18.8147L112.023 24.4647H107.086L104.174 19.0716H100.63V24.4647H96.0724V6.48756V6.48756ZM107.213 11.6238C107.213 10.5967 106.706 10.0829 105.693 10.0829H100.63V15.4763H105.693C106.706 15.4763 107.213 14.9624 107.213 13.9354V11.6238V11.6238ZM124.176 6.48756C126.084 6.48756 127.531 6.98836 128.519 7.98995C129.506 8.99154 130 10.4596 130 12.3945V18.5581C130 20.4926 129.506 21.9607 128.519 22.9623C127.531 23.9639 126.084 24.4647 124.176 24.4647H114.302V6.48756H124.176V6.48756ZM125.443 12.3945C125.443 10.8533 124.683 10.0829 123.164 10.0829H118.859V20.8694H123.164C124.683 20.8694 125.443 20.0989 125.443 18.5581V12.3945V12.3945Z" fill="white"/>
<path fill-rule="evenodd" clip-rule="evenodd" d="M43.626 10.0407C43.6296 7.63992 43.6313 6.43935 43.6313 6.43935C50.3972 6.4327 53.7799 6.42934 53.7799 6.42934C54.7138 6.42934 55.6095 6.80548 56.2701 7.47521C56.9304 8.14523 57.3012 9.0537 57.3012 10.001V13.5723C57.3015 14.5196 56.9304 15.4283 56.2701 16.0981C55.6098 16.7678 54.7138 17.1442 53.7799 17.144L51.6768 17.1233L48.1606 17.1673L48.1558 20.9355C54.2746 20.8955 57.3341 20.8755 57.3341 20.8755C57.3341 23.2684 57.3341 24.4647 57.3341 24.4647C48.1953 24.4647 43.626 24.4647 43.626 24.4647C43.6173 19.6379 43.6131 17.2243 43.6131 17.2243C43.6188 15.5815 44.9324 13.5963 47.0168 13.5402L52.8042 13.572C52.791 11.2046 52.7844 10.0207 52.7844 10.0207C46.6789 10.034 43.626 10.0407 43.626 10.0407V10.0407Z" fill="white"/>
</svg>
